<svg xmlns="http://www.w3.org/2000/svg" viewBox="0 0 1000 150" width="1000" height="150" role="img" aria-label="AI SYSTEMS: assistants that answer about the business · COMPUTER VISION: cameras that read what they are shown · PLATFORMS: the system a company runs its day on">
  <g>
    <rect x="0" y="0" width="317" height="150" rx="3" fill="#FFFFFF"/>
    <rect x="0" y="0" width="317" height="150" rx="3" fill="#6B3FD4" opacity="0.07"/>
    <rect x="0" y="0" width="317" height="150" rx="3" fill="none" stroke="#6B3FD4" stroke-width="1" opacity="0.45"/>
    <rect x="0" y="0" width="317" height="4" rx="2" fill="#6B3FD4"/>
    <g stroke="#6B3FD4" stroke-width="2.4" fill="none"><line x1="33.0" y1="70" x2="48.0" y2="47"/><line x1="63.0" y1="70" x2="48.0" y2="47"/><line x1="33.0" y1="70" x2="63.0" y2="70"/></g><circle cx="48.0" cy="47" r="5" fill="#6B3FD4"/><circle cx="33.0" cy="70" r="5" fill="#6B3FD4"/><circle cx="63.0" cy="70" r="5" fill="#6B3FD4"/>
    <text x="88" y="58" font-family="ui-monospace, 'SF Mono', SFMono-Regular, Menlo, Consolas, 'Liberation Mono', monospace" font-size="17" font-weight="700"
          fill="#12283F" letter-spacing="1.6">AI SYSTEMS</text>
    <text x="88" y="86" font-family="'Helvetica Neue', Helvetica, Arial, sans-serif" font-size="15" fill="#5A6B86">assistants that answer</text>
    <text x="88" y="108" font-family="'Helvetica Neue', Helvetica, Arial, sans-serif" font-size="15" fill="#5A6B86">about the business</text>
  </g>
  <g>
    <rect x="341" y="0" width="317" height="150" rx="3" fill="#FFFFFF"/>
    <rect x="341" y="0" width="317" height="150" rx="3" fill="#0077A6" opacity="0.07"/>
    <rect x="341" y="0" width="317" height="150" rx="3" fill="none" stroke="#0077A6" stroke-width="1" opacity="0.45"/>
    <rect x="341" y="0" width="317" height="4" rx="2" fill="#0077A6"/>
    <path d="M370.3333333333333 60 q19 -15 38 0 q-19 15 -38 0z" fill="none" stroke="#0077A6" stroke-width="2.4"/><circle cx="389.3333333333333" cy="60" r="6" fill="#0077A6"/><g stroke="#0077A6" stroke-width="1.8" opacity="0.7"><line x1="389.3333333333333" y1="41" x2="389.3333333333333" y2="47"/><line x1="389.3333333333333" y1="73" x2="389.3333333333333" y2="79"/></g>
    <text x="429" y="58" font-family="ui-monospace, 'SF Mono', SFMono-Regular, Menlo, Consolas, 'Liberation Mono', monospace" font-size="17" font-weight="700"
          fill="#12283F" letter-spacing="1.6">COMPUTER VISION</text>
    <text x="429" y="86" font-family="'Helvetica Neue', Helvetica, Arial, sans-serif" font-size="15" fill="#5A6B86">cameras that read</text>
    <text x="429" y="108" font-family="'Helvetica Neue', Helvetica, Arial, sans-serif" font-size="15" fill="#5A6B86">what they are shown</text>
  </g>
  <g>
    <rect x="683" y="0" width="317" height="150" rx="3" fill="#FFFFFF"/>
    <rect x="683" y="0" width="317" height="150" rx="3" fill="#C4008F" opacity="0.07"/>
    <rect x="683" y="0" width="317" height="150" rx="3" fill="none" stroke="#C4008F" stroke-width="1" opacity="0.45"/>
    <rect x="683" y="0" width="317" height="4" rx="2" fill="#C4008F"/>
    <g fill="#C4008F"><rect x="711.6666666666666" y="44" width="38" height="8" rx="2"/><rect x="711.6666666666666" y="56" width="38" height="8" rx="2" opacity="0.7"/><rect x="711.6666666666666" y="68" width="38" height="8" rx="2" opacity="0.42"/></g>
    <text x="771" y="58" font-family="ui-monospace, 'SF Mono', SFMono-Regular, Menlo, Consolas, 'Liberation Mono', monospace" font-size="17" font-weight="700"
          fill="#12283F" letter-spacing="1.6">PLATFORMS</text>
    <text x="771" y="86" font-family="'Helvetica Neue', Helvetica, Arial, sans-serif" font-size="15" fill="#5A6B86">the system a company</text>
    <text x="771" y="108" font-family="'Helvetica Neue', Helvetica, Arial, sans-serif" font-size="15" fill="#5A6B86">runs its day on</text>
  </g>
</svg>
